<?xml version="1.0" standalone="no"?>
<!DOCTYPE svg PUBLIC "-//W3C//DTD SVG 20010904//EN"
 "http://www.w3.org/TR/2001/REC-SVG-20010904/DTD/svg10.dtd">
<svg version="1.0" xmlns="http://www.w3.org/2000/svg"
 width="526.000000pt" height="526.000000pt" viewBox="0 0 526.000000 526.000000"
 preserveAspectRatio="xMidYMid meet">
<metadata>
Created by potrace 1.14, written by Peter Selinger 2001-2017
</metadata>
<g transform="translate(0.000000,526.000000) scale(0.100000,-0.100000)"
fill="#000000" stroke="none">
<path d="M2015 5243 c-236 -18 -457 -70 -638 -150 l-79 -35 -107 41 c-144 55
-186 64 -283 60 -111 -5 -187 -42 -281 -136 -78 -78 -122 -158 -137 -248 -12
-76 -2 -141 45 -287 21 -62 37 -129 38 -148 0 -20 -18 -78 -42 -135 -53 -124
-106 -326 -122 -465 -8 -76 -21 -127 -45 -185 -114 -277 -95 -615 54 -910 111
-221 319 -437 557 -577 130 -76 122 -64 81 -132 -19 -32 -47 -94 -61 -137
l-27 -79 -152 0 c-166 0 -182 -5 -211 -60 -23 -44 -23 -1546 0 -1590 33 -64
-58 -60 1416 -60 l1341 0 33 33 c26 26 35 46 41 85 l6 51 547 3 c532 3 548 4
612 26 130 43 259 152 317 268 147 294 -5 677 -304 768 l-59 18 -28 73 c-15
41 -46 101 -68 134 -52 78 -161 179 -238 220 -34 18 -61 34 -61 36 0 5 359 8
400 4 59 -6 108 -1 138 15 102 53 105 225 6 425 -97 197 -264 313 -486 338
l-66 8 42 70 c83 136 141 305 166 480 15 107 12 373 -6 494 -16 114 -51 264
-84 362 l-21 61 30 46 c131 205 165 434 92 630 -37 103 -123 233 -197 302
-152 138 -318 162 -599 86 -71 -20 -139 -36 -150 -36 -11 0 -51 16 -90 35
-279 137 -904 231 -1320 198z m516 -113 c329 -33 682 -123 804 -206 20 -13 49
-24 65 -24 16 0 100 19 187 42 129 34 175 41 253 42 84 1 102 -2 154 -27 114
-53 248 -220 291 -364 50 -167 12 -350 -109 -526 l-47 -68 29 -77 c61 -159
101 -366 109 -567 21 -527 -190 -908 -622 -1123 -108 -54 -272 -110 -400 -137
-118 -25 -143 -34 -150 -56 -9 -27 20 -69 47 -69 41 0 252 52 352 87 123 43
209 81 285 128 32 19 64 35 70 35 6 0 19 -17 30 -37 l20 -38 1 36 c0 61 18 92
85 153 58 51 72 59 123 66 66 9 167 -2 232 -25 138 -49 262 -186 310 -344 22
-71 26 -171 8 -189 -21 -21 -75 -14 -95 11 l-18 24 -18 -24 c-22 -27 -53 -30
-86 -7 -22 16 -24 16 -33 0 -12 -22 -54 -20 -77 3 -18 18 -19 18 -35 0 -19
-23 -54 -24 -83 -4 -18 13 -22 13 -33 0 -16 -19 -59 -19 -80 0 -15 14 -18 14
-30 0 -11 -13 -10 -22 4 -52 9 -19 15 -37 13 -40 -3 -2 -26 2 -53 8 -75 18
-257 15 -334 -5 -70 -19 -156 -59 -217 -100 -20 -14 -40 -26 -43 -26 -3 0 -14
15 -24 34 -10 18 -29 39 -42 45 -15 7 -86 11 -178 11 l-153 0 -36 53 c-113
164 -309 307 -482 352 -180 46 -419 -15 -540 -140 l-51 -52 -24 44 c-45 86
-148 148 -292 177 -152 31 -289 15 -396 -45 l-53 -30 -67 36 c-220 121 -409
287 -528 466 -137 206 -202 464 -175 690 12 101 45 218 80 287 10 20 22 71 25
112 48 501 315 964 701 1212 205 132 469 222 735 251 79 9 495 6 591 -3z
m-1516 -81 c64 -17 155 -51 154 -58 0 -3 -39 -33 -87 -66 -113 -79 -270 -236
-356 -359 -68 -96 -70 -97 -82 -73 -24 44 -54 171 -54 223 0 68 22 126 70 188
97 127 226 180 355 145z m620 -3005 c168 -43 244 -158 201 -305 -20 -71 -39
-81 -156 -87 -248 -11 -430 69 -430 190 0 56 -15 78 -52 78 l-32 0 44 45 c98
100 239 126 425 79z m912 -35 c34 -11 91 -39 125 -61 68 -43 228 -194 228
-215 0 -9 -19 -13 -63 -13 -62 0 -63 1 -72 32 -6 18 -20 35 -34 40 -19 7 -28
3 -50 -23 -109 -131 -144 -147 -336 -156 -141 -7 -208 8 -277 60 -57 44 -75
91 -58 151 46 165 319 259 537 185z m-1385 -269 c3 -17 -58 -28 -73 -13 -5 5
3 39 18 77 l28 69 11 -59 c7 -33 14 -66 16 -74z m2899 -103 c95 -32 172 -83
244 -159 66 -69 127 -179 140 -249 10 -52 16 -59 81 -75 136 -36 239 -119 298
-244 29 -61 31 -71 31 -185 0 -110 -2 -125 -27 -178 -38 -80 -126 -170 -207
-210 l-66 -32 -557 -3 -558 -3 0 584 0 583 48 46 c62 60 116 93 204 123 101
34 271 35 369 2z m-2846 -358 c19 -17 35 -26 35 -20 0 36 130 54 195 27 39
-16 43 -30 20 -64 -14 -20 -21 -21 -77 -15 -44 4 -59 3 -54 -5 4 -6 23 -14 44
-18 20 -3 52 -15 70 -25 35 -20 35 -20 46 33 7 31 58 86 93 99 36 13 110 11
141 -5 34 -18 68 -54 81 -86 9 -22 10 -20 10 22 1 28 7 53 17 62 20 20 68 21
84 1 11 -13 16 -13 42 1 55 29 131 -4 162 -70 16 -34 23 -186 10 -220 -7 -19
-74 -22 -92 -4 -7 7 -12 43 -12 89 0 103 -31 138 -80 89 -16 -16 -20 -33 -20
-89 0 -92 -4 -101 -49 -101 -49 0 -61 14 -61 75 -1 50 -1 50 -14 20 -55 -124
-226 -138 -296 -23 -18 30 -20 31 -20 10 0 -13 -13 -36 -28 -52 -50 -50 -162
-51 -222 -2 -22 18 -22 19 -6 50 19 37 22 38 87 15 35 -13 52 -14 59 -7 8 8
-2 15 -35 23 -26 6 -57 19 -70 27 -22 15 -24 14 -35 -20 -21 -65 -43 -74 -185
-72 -144 1 -160 9 -158 75 3 79 57 160 128 192 23 11 63 19 97 19 50 0 62 -4
93 -31z m1754 11 c96 -48 160 -186 115 -245 -13 -18 -27 -20 -142 -21 -70 -1
-135 3 -145 8 -10 5 -26 27 -36 48 l-17 38 -60 -136 c-64 -145 -72 -154 -125
-132 -36 15 -37 37 -4 108 14 30 25 58 25 62 0 5 -30 58 -66 119 l-67 112 23
24 c13 14 34 25 47 25 23 0 34 -14 109 -137 10 -15 16 -7 47 61 l37 78 42 -6
c24 -3 50 -2 58 4 26 17 118 12 159 -10z m-719 -5 c11 -13 16 -13 42 1 36 19
77 13 119 -17 56 -40 59 -55 59 -324 0 -229 1 -245 18 -245 26 0 42 -20 42
-51 0 -51 -9 -59 -61 -59 -71 0 -99 27 -106 106 l-5 61 -24 -24 c-20 -20 -33
-23 -101 -23 -71 -1 -76 -2 -59 -15 23 -17 64 -19 102 -5 34 13 64 -10 64 -51
0 -36 -26 -50 -104 -56 -82 -6 -140 23 -173 86 l-23 44 0 -67 c0 -107 -42
-167 -129 -187 -43 -10 -98 3 -135 32 -32 25 -33 40 -3 75 23 26 25 27 48 11
33 -24 86 -22 99 2 16 31 13 43 -9 31 -58 -30 -150 16 -180 90 -8 21 -10 17
-10 -30 -1 -64 -12 -80 -56 -80 -47 0 -55 15 -55 101 0 99 -24 129 -81 99 -16
-9 -19 -22 -19 -93 0 -51 -5 -88 -12 -95 -16 -16 -70 -16 -86 0 -17 17 -17
279 0 296 17 17 73 15 88 -3 11 -13 15 -13 33 0 50 35 133 2 164 -65 18 -39
33 -52 33 -28 0 19 50 77 80 93 34 18 73 19 102 4 14 -8 23 -8 31 0 15 15 70
14 85 -1 7 -7 12 -35 12 -63 1 -50 1 -50 14 -20 33 76 132 121 209 96 34 -11
80 -53 90 -81 3 -8 6 65 6 162 1 165 0 178 -18 188 -26 13 -33 13 -56 -4 -16
-11 -20 -31 -25 -102 l-5 -89 -40 -3 c-59 -5 -65 9 -65 159 0 103 3 131 16
143 20 20 68 21 84 1z m-993 -390 c18 -13 22 -13 33 0 18 22 77 19 90 -4 5
-11 10 -76 10 -145 0 -100 -3 -128 -16 -140 -18 -19 -65 -21 -82 -4 -9 9 -18
9 -37 0 -85 -39 -186 40 -188 147 -2 107 116 198 190 146z m1511 -307 c7 -7
12 -26 12 -44 0 -27 3 -31 23 -27 16 3 34 -4 53 -20 25 -22 28 -31 29 -83 0
-57 -1 -59 -27 -62 -27 -3 -28 -1 -28 41 0 28 -6 49 -15 57 -22 18 -33 3 -37
-50 l-3 -45 -55 -3 c-30 -1 -65 -3 -78 -3 -13 -1 -34 9 -46 21 -23 21 -23 21
-29 1 -4 -15 -13 -21 -35 -21 -42 0 -62 23 -62 71 0 28 -4 39 -15 39 -11 0
-15 -13 -15 -54 l0 -55 -57 0 c-69 0 -99 17 -111 61 l-8 32 -18 -48 c-15 -38
-22 -47 -40 -44 -11 2 -25 13 -31 26 -13 29 -21 28 -29 -3 -5 -18 -13 -25 -30
-25 -19 0 -27 11 -51 69 -30 74 -28 101 5 101 14 0 24 -10 32 -31 l10 -30 19
30 c24 39 46 39 63 0 l13 -31 13 31 c14 34 40 40 60 16 11 -14 15 -14 29 -1
12 11 34 15 76 12 74 -3 85 0 85 29 0 29 13 38 40 30 13 -4 20 -15 20 -31 0
-17 5 -24 20 -24 11 0 23 -7 26 -15 5 -13 8 -13 27 0 26 18 78 20 95 3 9 -9
12 -3 12 28 0 39 13 64 35 64 6 0 16 -5 23 -12z m-720 -210 c3 -25 0 -28 -27
-28 -28 0 -31 3 -31 31 0 27 3 30 28 27 21 -2 28 -9 30 -30z"/>
<path d="M3760 4784 c-14 -3 -53 -14 -87 -25 -92 -30 -88 -45 40 -179 57 -59
128 -144 158 -189 30 -44 60 -83 67 -86 26 -10 51 16 80 88 44 104 50 162 23
223 -33 74 -67 118 -110 142 -38 22 -124 34 -171 26z"/>
<path d="M1116 3936 c-68 -25 -117 -84 -130 -156 l-6 -35 -72 0 c-62 0 -81 -5
-126 -29 -111 -62 -164 -195 -128 -321 31 -105 140 -185 252 -185 84 0 188 67
227 145 20 40 35 125 29 164 -4 29 -2 31 25 31 40 0 125 44 149 77 50 68 56
136 18 211 -43 87 -149 131 -238 98z"/>
<path d="M2382 3899 c-25 -12 -55 -39 -70 -62 -23 -35 -27 -51 -27 -113 0 -66
3 -76 31 -111 17 -21 48 -48 70 -60 39 -22 39 -23 36 -76 -7 -107 48 -205 139
-251 147 -73 325 5 369 162 26 94 2 201 -58 266 -35 37 -118 76 -163 76 -34 0
-37 2 -42 36 -8 46 -40 94 -85 125 -50 34 -142 38 -200 8z"/>
<path d="M1755 3826 c-5 -3 -31 -7 -58 -11 -27 -4 -58 -16 -73 -28 -37 -32
-25 -65 53 -148 l64 -68 -25 -16 c-29 -19 -94 -30 -129 -21 -13 3 -44 21 -70
41 -63 48 -105 44 -122 -13 -5 -18 1 -30 30 -58 99 -93 212 -113 324 -58 l63
31 68 -35 c144 -74 333 -43 333 54 0 47 -58 71 -93 39 -41 -37 -145 -24 -223
27 l-32 20 57 57 c84 84 88 128 15 164 -33 17 -159 32 -182 23z"/>
<path d="M1612 1178 c-20 -20 -14 -65 10 -82 30 -21 44 -20 68 4 24 24 26 53
4 74 -18 19 -65 21 -82 4z"/>
<path d="M2182 804 c-33 -23 -27 -34 17 -34 46 0 62 17 36 37 -24 16 -26 16
-53 -3z"/>
<path d="M1842 788 c-7 -7 -12 -21 -12 -33 0 -29 19 -45 52 -45 36 0 56 36 39
69 -13 23 -59 29 -79 9z"/>
<path d="M1192 788 c-20 -20 -14 -66 9 -79 33 -17 69 3 69 39 0 33 -16 52 -45
52 -12 0 -26 -5 -33 -12z"/>
<path d="M2334 445 c-4 -9 -2 -21 4 -27 15 -15 44 -1 40 19 -4 23 -36 29 -44
8z"/>
<path d="M2532 433 c4 -40 33 -42 33 -3 0 22 -5 30 -18 30 -14 0 -18 -6 -15
-27z"/>
<path d="M2636 453 c-3 -4 -6 -14 -6 -24 0 -15 8 -18 40 -16 33 1 40 5 40 22
0 16 -7 20 -34 22 -19 1 -37 -1 -40 -4z"/>
</g>
</svg>
